<?xml version="1.0" standalone="no"?><svg xmlns="http://www.w3.org/2000/svg" viewBox="0 0 1440 320"><path fill="#D8EAF2" fill-opacity="1" d="M0,0L12,26.7C24,53,48,107,72,117.3C96,128,120,96,144,101.3C168,107,192,149,216,186.7C240,224,264,256,288,261.3C312,267,336,245,360,229.3C384,213,408,203,432,197.3C456,192,480,192,504,170.7C528,149,552,107,576,128C600,149,624,235,648,229.3C672,224,696,128,720,96C744,64,768,96,792,96C816,96,840,64,864,53.3C888,43,912,53,936,85.3C960,117,984,171,1008,165.3C1032,160,1056,96,1080,101.3C1104,107,1128,181,1152,208C1176,235,1200,213,1224,170.7C1248,128,1272,64,1296,64C1320,64,1344,128,1368,181.3C1392,235,1416,277,1428,298.7L1440,320L1440,320L1428,320C1416,320,1392,320,1368,320C1344,320,1320,320,1296,320C1272,320,1248,320,1224,320C1200,320,1176,320,1152,320C1128,320,1104,320,1080,320C1056,320,1032,320,1008,320C984,320,960,320,936,320C912,320,888,320,864,320C840,320,816,320,792,320C768,320,744,320,720,320C696,320,672,320,648,320C624,320,600,320,576,320C552,320,528,320,504,320C480,320,456,320,432,320C408,320,384,320,360,320C336,320,312,320,288,320C264,320,240,320,216,320C192,320,168,320,144,320C120,320,96,320,72,320C48,320,24,320,12,320L0,320Z"></path></svg>